<svg width="123" height="120" viewBox="0 0 123 120" fill="none" xmlns="http://www.w3.org/2000/svg">
<rect width="8861" height="4031" transform="translate(-6881 -1547)" fill="white"/>
<path d="M44.947 77.8414L55.7129 66.7401L67.9591 77.8414H88.9526L55.5783 45.7268L22.4732 77.8414H44.947Z" fill="#2D383F"/>
<path d="M75.765 26.2996L59.8853 42.1586L70.3821 52.7313L75.765 47.4449L105.237 76.2555C98.508 93.8326 81.2826 106.388 60.9619 106.388C34.8546 106.388 13.7265 85.6388 13.7265 60C13.8611 34.3612 34.9892 13.6123 61.0965 13.6123C84.2432 13.6123 103.622 30.1322 107.524 51.674L121.789 66.4758C122.058 64.3612 122.193 62.1145 122.193 60C122.193 44.0088 115.868 28.9427 104.295 17.5771C92.7213 6.21145 77.3799 0 61.0965 0C44.6785 0 29.4717 6.21145 17.8983 17.5771C6.32497 28.9427 0 43.8767 0 60C0 76.1233 6.32497 91.0573 17.8983 102.423C29.4717 113.789 44.8131 120 61.0965 120C77.3799 120 92.7213 113.789 104.295 102.423C111.427 95.4185 116.541 87.0925 119.367 77.9736C119.905 76.3877 120.309 74.6696 120.713 73.0837L108.332 60.2643L75.765 26.2996Z" fill="#2D383F"/>
<path d="M172.604 38.5556H181.589L176.688 62.7527H191.844L190.392 69.7489H166.252L172.604 38.5556Z" fill="#2D383F"/>
<path d="M200.3 38.5556H209.284L202.931 69.7489H193.947L200.3 38.5556Z" fill="#2D383F"/>
<path d="M223.254 45.3736L221.847 52.2361H235.869L234.462 59.0541H220.486L218.308 69.7489H209.323L215.676 38.5556H240.542L239.136 45.3736H223.254Z" fill="#2D383F"/>
<path d="M252.231 45.3736L251.188 50.6319H265.3L263.984 57.227H249.826L248.692 62.9309H265.345L263.893 69.7489H238.437L244.79 38.5556H269.656L268.249 45.3736H252.231Z" fill="#2D383F"/>
<path d="M280.586 45.5518H270.83L272.282 38.5556H300.733L299.281 45.5518H289.57L284.624 69.7489H275.64L280.586 45.5518Z" fill="#2D383F"/>
<path d="M314.436 70.3728C311.23 70.3728 308.432 69.7935 306.042 68.6348C303.682 67.4762 301.852 65.8572 300.551 63.7776C299.281 61.6981 298.645 59.3214 298.645 56.6477C298.645 53.0828 299.477 49.8743 301.141 47.0224C302.835 44.1704 305.18 41.9423 308.174 40.3381C311.199 38.7339 314.633 37.9318 318.475 37.9318C321.681 37.9318 324.464 38.5111 326.824 39.6697C329.214 40.8283 331.044 42.4474 332.315 44.5269C333.615 46.6065 334.266 48.9831 334.266 51.6568C334.266 55.2217 333.419 58.4302 331.725 61.2822C330.061 64.1341 327.716 66.3622 324.691 67.9664C321.696 69.5706 318.278 70.3728 314.436 70.3728ZM315.208 63.0646C317.204 63.0646 318.959 62.5744 320.471 61.5941C321.984 60.6137 323.149 59.3066 323.965 57.6726C324.782 56.009 325.19 54.182 325.19 52.1915C325.19 50.0823 324.525 48.4038 323.194 47.1561C321.893 45.8786 320.063 45.2399 317.703 45.2399C315.707 45.2399 313.952 45.7301 312.44 46.7104C310.927 47.6908 309.763 49.0128 308.946 50.6764C308.129 52.3104 307.721 54.1226 307.721 56.113C307.721 58.2222 308.371 59.9156 309.672 61.193C311.003 62.4408 312.848 63.0646 315.208 63.0646Z" fill="#2D383F"/>
<path d="M351.132 70.3728C348.379 70.3728 346.005 69.9271 344.008 69.0359C342.012 68.115 340.484 66.8078 339.425 65.1145C338.366 63.4211 337.837 61.4307 337.837 59.1432C337.837 58.1925 337.958 57.0933 338.2 55.8456L341.739 38.5556H350.724L347.23 55.7119C347.048 56.6032 346.958 57.4201 346.958 58.1628C346.958 61.4307 348.712 63.0646 352.221 63.0646C354.127 63.0646 355.624 62.5002 356.713 61.3713C357.833 60.2127 358.665 58.3262 359.209 55.7119L362.703 38.5556H371.551L367.967 56.2467C366.031 65.6641 360.419 70.3728 351.132 70.3728Z" fill="#2D383F"/>
<path d="M404.047 48.4929C404.047 51.3449 403.275 53.8106 401.733 55.8902C400.19 57.94 398.027 59.4403 395.244 60.3909L400.644 69.7489H391.251L386.532 61.4604H381.994L380.315 69.7489H371.331L377.683 38.5556H391.251C395.304 38.5556 398.45 39.432 400.689 41.1848C402.927 42.9375 404.047 45.3736 404.047 48.4929ZM394.972 49.3396C394.972 48.0622 394.533 47.1115 393.656 46.4876C392.778 45.8341 391.553 45.5073 389.98 45.5073H385.261L383.355 54.6424H388.71C390.706 54.6424 392.249 54.182 393.338 53.261C394.427 52.3401 394.972 51.0329 394.972 49.3396Z" fill="#2D383F"/>
<path d="M172.233 99.1608C171.139 99.1608 170.145 98.9231 169.25 98.4478C168.367 97.9621 167.672 97.3008 167.167 96.4638C166.672 95.6268 166.425 94.6865 166.425 93.6429C166.425 92.5992 166.672 91.6589 167.167 90.8219C167.672 89.9849 168.367 89.3288 169.25 88.8534C170.145 88.3678 171.139 88.125 172.233 88.125C173.328 88.125 174.311 88.3626 175.185 88.8379C176.069 89.3133 176.763 89.9746 177.268 90.8219C177.773 91.6589 178.026 92.5992 178.026 93.6429C178.026 94.6865 177.773 95.632 177.268 96.4793C176.763 97.3163 176.069 97.9725 175.185 98.4478C174.311 98.9231 173.328 99.1608 172.233 99.1608ZM172.233 98.1378C173.107 98.1378 173.896 97.9466 174.601 97.5643C175.306 97.1716 175.858 96.6343 176.258 95.9523C176.658 95.26 176.858 94.4902 176.858 93.6429C176.858 92.7955 176.658 92.0309 176.258 91.3489C175.858 90.6566 175.306 90.1193 174.601 89.7369C173.896 89.3443 173.107 89.1479 172.233 89.1479C171.36 89.1479 170.566 89.3443 169.85 89.7369C169.145 90.1193 168.587 90.6566 168.177 91.3489C167.777 92.0309 167.577 92.7955 167.577 93.6429C167.577 94.4902 167.777 95.26 168.177 95.9523C168.587 96.6343 169.145 97.1716 169.85 97.5643C170.566 97.9466 171.36 98.1378 172.233 98.1378Z" fill="#2D383F"/>
<path d="M184.822 90.8529C185.6 90.8529 186.305 91.0286 186.937 91.3799C187.568 91.7209 188.062 92.2066 188.42 92.8369C188.778 93.4672 188.957 94.1854 188.957 94.9913C188.957 95.8077 188.778 96.531 188.42 97.1613C188.062 97.7916 187.568 98.2825 186.937 98.6338C186.316 98.9748 185.611 99.1453 184.822 99.1453C184.148 99.1453 183.538 99.0109 182.991 98.7423C182.454 98.4633 182.012 98.0603 181.665 97.5333V102.075H180.544V90.9149H181.618V92.5269C181.954 91.9896 182.396 91.5762 182.943 91.2869C183.501 90.9976 184.127 90.8529 184.822 90.8529ZM184.743 98.1688C185.321 98.1688 185.848 98.0396 186.321 97.7813C186.795 97.5126 187.163 97.1355 187.426 96.6498C187.699 96.1642 187.836 95.6113 187.836 94.9913C187.836 94.3714 187.699 93.8237 187.426 93.3484C187.163 92.8627 186.795 92.4855 186.321 92.2169C185.848 91.9482 185.321 91.8139 184.743 91.8139C184.154 91.8139 183.622 91.9482 183.149 92.2169C182.686 92.4855 182.317 92.8627 182.044 93.3484C181.781 93.8237 181.649 94.3714 181.649 94.9913C181.649 95.6113 181.781 96.1642 182.044 96.6498C182.317 97.1355 182.686 97.5126 183.149 97.7813C183.622 98.0396 184.154 98.1688 184.743 98.1688Z" fill="#2D383F"/>
<path d="M197.236 91.8914H192.485V99.0678H191.364V90.9149H197.236V91.8914Z" fill="#2D383F"/>
<path d="M201.712 90.8529C202.796 90.8529 203.627 91.1216 204.206 91.6589C204.784 92.1859 205.074 92.9712 205.074 94.0149V99.0678H204V97.7968C203.748 98.2205 203.374 98.5511 202.88 98.7888C202.396 99.0264 201.817 99.1453 201.144 99.1453C200.218 99.1453 199.481 98.9283 198.934 98.4943C198.387 98.0603 198.113 97.4868 198.113 96.7738C198.113 96.0815 198.366 95.5235 198.871 95.0998C199.387 94.6762 200.202 94.4644 201.317 94.4644H203.953V93.9684C203.953 93.2657 203.753 92.7335 203.353 92.3719C202.954 91.9999 202.37 91.8139 201.601 91.8139C201.075 91.8139 200.57 91.9017 200.086 92.0774C199.602 92.2427 199.187 92.4752 198.839 92.7749L198.334 91.9534C198.755 91.6021 199.26 91.3334 199.85 91.1474C200.439 90.9511 201.06 90.8529 201.712 90.8529ZM201.317 98.2773C201.949 98.2773 202.491 98.1378 202.943 97.8588C203.395 97.5695 203.732 97.1561 203.953 96.6188V95.2858H201.349C199.928 95.2858 199.218 95.7715 199.218 96.7428C199.218 97.2181 199.402 97.5953 199.771 97.8743C200.139 98.143 200.654 98.2773 201.317 98.2773Z" fill="#2D383F"/>
<path d="M208.057 90.9149H209.177V94.5263H214.402V90.9149H215.522V99.0678H214.402V95.4718H209.177V99.0678H208.057V90.9149Z" fill="#2D383F"/>
<path d="M218.707 90.9149H219.828V97.3938L225.368 90.9149H226.362V99.0678H225.241V92.5889L219.717 99.0678H218.707V90.9149Z" fill="#2D383F"/>
<path d="M233.444 94.8208C234.034 94.9552 234.486 95.1877 234.802 95.5183C235.128 95.849 235.291 96.252 235.291 96.7273C235.291 97.2026 235.123 97.6263 234.786 97.9983C234.46 98.3703 234.013 98.6596 233.444 98.8663C232.876 99.0626 232.25 99.1608 231.566 99.1608C230.967 99.1608 230.377 99.0781 229.799 98.9128C229.22 98.7371 228.715 98.484 228.283 98.1533L228.662 97.3318C229.041 97.6108 229.483 97.8278 229.988 97.9828C230.493 98.1378 231.003 98.2153 231.519 98.2153C232.287 98.2153 232.913 98.0758 233.397 97.7968C233.892 97.5075 234.139 97.12 234.139 96.6343C234.139 96.2003 233.939 95.8645 233.539 95.6268C233.139 95.3788 232.592 95.2548 231.898 95.2548H230.477V94.4489H231.835C232.455 94.4489 232.955 94.3352 233.334 94.1079C233.713 93.8702 233.902 93.555 233.902 93.1624C233.902 92.7284 233.686 92.3874 233.255 92.1394C232.834 91.8914 232.282 91.7674 231.598 91.7674C230.703 91.7674 229.82 91.9896 228.946 92.4339L228.631 91.5814C229.62 91.0751 230.646 90.8219 231.708 90.8219C232.34 90.8219 232.908 90.9149 233.413 91.1009C233.928 91.2766 234.328 91.5297 234.612 91.8604C234.907 92.1911 235.054 92.5734 235.054 93.0074C235.054 93.4207 234.907 93.7875 234.612 94.1079C234.328 94.4282 233.939 94.6658 233.444 94.8208Z" fill="#2D383F"/>
<path d="M240.692 90.8529C241.775 90.8529 242.607 91.1216 243.185 91.6589C243.764 92.1859 244.053 92.9712 244.053 94.0149V99.0678H242.98V97.7968C242.728 98.2205 242.354 98.5511 241.86 98.7888C241.376 99.0264 240.797 99.1453 240.123 99.1453C239.198 99.1453 238.461 98.9283 237.914 98.4943C237.367 98.0603 237.093 97.4868 237.093 96.7738C237.093 96.0815 237.346 95.5235 237.851 95.0998C238.366 94.6762 239.182 94.4644 240.297 94.4644H242.933V93.9684C242.933 93.2657 242.733 92.7335 242.333 92.3719C241.933 91.9999 241.349 91.8139 240.581 91.8139C240.055 91.8139 239.55 91.9017 239.066 92.0774C238.582 92.2427 238.166 92.4752 237.819 92.7749L237.314 91.9534C237.735 91.6021 238.24 91.3334 238.829 91.1474C239.418 90.9511 240.039 90.8529 240.692 90.8529ZM240.297 98.2773C240.928 98.2773 241.47 98.1378 241.923 97.8588C242.375 97.5695 242.712 97.1561 242.933 96.6188V95.2858H240.329C238.908 95.2858 238.198 95.7715 238.198 96.7428C238.198 97.2181 238.382 97.5953 238.75 97.8743C239.119 98.143 239.634 98.2773 240.297 98.2773Z" fill="#2D383F"/>
<path d="M255.686 98.1068V101.114H254.628V99.0678H247.037V90.9149H248.157V98.1068H253.224V90.9149H254.344V98.1068H255.686Z" fill="#2D383F"/>
<path d="M257.826 90.9149H258.946V97.3938L264.486 90.9149H265.481V99.0678H264.36V92.5889L258.836 99.0678H257.826V90.9149Z" fill="#2D383F"/>
<path d="M275.068 90.9149V99.0678H274.042V96.3708H271.123L269.197 99.0678H267.982L270.049 96.2158C269.407 96.0402 268.913 95.7405 268.566 95.3168C268.218 94.8932 268.045 94.3558 268.045 93.7049C268.045 92.7955 268.361 92.1032 268.992 91.6279C269.623 91.1526 270.486 90.9149 271.58 90.9149H275.068ZM269.181 93.7359C269.181 94.9448 269.965 95.5493 271.533 95.5493H274.042V91.8914H271.612C269.991 91.8914 269.181 92.5062 269.181 93.7359Z" fill="#2D383F"/>
<path d="M289.844 90.9149V99.0678H288.723V91.8914H283.515V99.0678H282.394V90.9149H289.844Z" fill="#2D383F"/>
<path d="M296.454 99.1453C295.654 99.1453 294.934 98.9696 294.292 98.6183C293.65 98.2566 293.145 97.7606 292.777 97.1303C292.408 96.5 292.224 95.787 292.224 94.9913C292.224 94.1957 292.408 93.4827 292.777 92.8524C293.145 92.2221 293.65 91.7312 294.292 91.3799C294.934 91.0286 295.654 90.8529 296.454 90.8529C297.254 90.8529 297.975 91.0286 298.616 91.3799C299.258 91.7312 299.758 92.2221 300.116 92.8524C300.484 93.4827 300.668 94.1957 300.668 94.9913C300.668 95.787 300.484 96.5 300.116 97.1303C299.758 97.7606 299.258 98.2566 298.616 98.6183C297.975 98.9696 297.254 99.1453 296.454 99.1453ZM296.454 98.1688C297.043 98.1688 297.569 98.0396 298.032 97.7813C298.506 97.5126 298.874 97.1355 299.137 96.6498C299.4 96.1642 299.532 95.6113 299.532 94.9913C299.532 94.3714 299.4 93.8185 299.137 93.3329C298.874 92.8472 298.506 92.4752 298.032 92.2169C297.569 91.9482 297.043 91.8139 296.454 91.8139C295.865 91.8139 295.334 91.9482 294.86 92.2169C294.397 92.4752 294.029 92.8472 293.755 93.3329C293.492 93.8185 293.361 94.3714 293.361 94.9913C293.361 95.6113 293.492 96.1642 293.755 96.6498C294.029 97.1355 294.397 97.5126 294.86 97.7813C295.334 98.0396 295.865 98.1688 296.454 98.1688Z" fill="#2D383F"/>
<path d="M307.963 99.0678L305.327 95.6578L302.676 99.0678H301.413L304.696 94.8828L301.571 90.9149H302.833L305.327 94.1079L307.821 90.9149H309.052L305.927 94.8828L309.241 99.0678H307.963Z" fill="#2D383F"/>
<path d="M314.21 99.1453C313.41 99.1453 312.69 98.9696 312.048 98.6183C311.406 98.2566 310.901 97.7606 310.533 97.1303C310.164 96.5 309.98 95.787 309.98 94.9913C309.98 94.1957 310.164 93.4827 310.533 92.8524C310.901 92.2221 311.406 91.7312 312.048 91.3799C312.69 91.0286 313.41 90.8529 314.21 90.8529C315.01 90.8529 315.73 91.0286 316.372 91.3799C317.014 91.7312 317.514 92.2221 317.872 92.8524C318.24 93.4827 318.424 94.1957 318.424 94.9913C318.424 95.787 318.24 96.5 317.872 97.1303C317.514 97.7606 317.014 98.2566 316.372 98.6183C315.73 98.9696 315.01 99.1453 314.21 99.1453ZM314.21 98.1688C314.799 98.1688 315.325 98.0396 315.788 97.7813C316.262 97.5126 316.63 97.1355 316.893 96.6498C317.156 96.1642 317.288 95.6113 317.288 94.9913C317.288 94.3714 317.156 93.8185 316.893 93.3329C316.63 92.8472 316.262 92.4752 315.788 92.2169C315.325 91.9482 314.799 91.8139 314.21 91.8139C313.621 91.8139 313.089 91.9482 312.616 92.2169C312.153 92.4752 311.785 92.8472 311.511 93.3329C311.248 93.8185 311.117 94.3714 311.117 94.9913C311.117 95.6113 311.248 96.1642 311.511 96.6498C311.785 97.1355 312.153 97.5126 312.616 97.7813C313.089 98.0396 313.621 98.1688 314.21 98.1688Z" fill="#2D383F"/>
<path d="M328.87 98.1068V101.036H327.812V99.0678H320.378V101.036H319.321V98.1068H319.794C320.352 98.0758 320.731 97.6728 320.931 96.8978C321.131 96.1228 321.267 95.0378 321.341 93.6429L321.451 90.9149H327.575V98.1068H328.87ZM322.367 93.7049C322.314 94.8622 322.214 95.818 322.067 96.5723C321.92 97.3163 321.657 97.8278 321.278 98.1068H326.455V91.8914H322.462L322.367 93.7049Z" fill="#2D383F"/>
<path d="M334.478 99.1453C333.679 99.1453 332.958 98.9696 332.316 98.6183C331.674 98.2566 331.169 97.7606 330.801 97.1303C330.433 96.5 330.248 95.787 330.248 94.9913C330.248 94.1957 330.433 93.4827 330.801 92.8524C331.169 92.2221 331.674 91.7312 332.316 91.3799C332.958 91.0286 333.679 90.8529 334.478 90.8529C335.278 90.8529 335.999 91.0286 336.641 91.3799C337.282 91.7312 337.782 92.2221 338.14 92.8524C338.508 93.4827 338.692 94.1957 338.692 94.9913C338.692 95.787 338.508 96.5 338.14 97.1303C337.782 97.7606 337.282 98.2566 336.641 98.6183C335.999 98.9696 335.278 99.1453 334.478 99.1453ZM334.478 98.1688C335.068 98.1688 335.594 98.0396 336.057 97.7813C336.53 97.5126 336.898 97.1355 337.161 96.6498C337.424 96.1642 337.556 95.6113 337.556 94.9913C337.556 94.3714 337.424 93.8185 337.161 93.3329C336.898 92.8472 336.53 92.4752 336.057 92.2169C335.594 91.9482 335.068 91.8139 334.478 91.8139C333.889 91.8139 333.358 91.9482 332.884 92.2169C332.421 92.4752 332.053 92.8472 331.779 93.3329C331.516 93.8185 331.385 94.3714 331.385 94.9913C331.385 95.6113 331.516 96.1642 331.779 96.6498C332.053 97.1355 332.421 97.5126 332.884 97.7813C333.358 98.0396 333.889 98.1688 334.478 98.1688Z" fill="#2D383F"/>
<path d="M346.375 94.8519C347.5 95.1102 348.063 95.7767 348.063 96.8513C348.063 97.5643 347.795 98.112 347.258 98.4943C346.722 98.8766 345.922 99.0678 344.859 99.0678H341.087V90.9149H344.749C345.696 90.9149 346.438 91.0957 346.974 91.4574C347.511 91.8191 347.779 92.3357 347.779 93.0074C347.779 93.4517 347.653 93.834 347.4 94.1544C347.158 94.4644 346.817 94.6969 346.375 94.8519ZM342.176 94.5419H344.67C345.312 94.5419 345.801 94.423 346.138 94.1854C346.485 93.9477 346.659 93.6015 346.659 93.1469C346.659 92.6922 346.485 92.3512 346.138 92.1239C345.801 91.8966 345.312 91.7829 344.67 91.7829H342.176V94.5419ZM344.812 98.1998C345.528 98.1998 346.064 98.0861 346.422 97.8588C346.78 97.6315 346.959 97.275 346.959 96.7893C346.959 96.3037 346.795 95.9472 346.469 95.7198C346.143 95.4822 345.628 95.3633 344.923 95.3633H342.176V98.1998H344.812Z" fill="#2D383F"/>
<path d="M360.108 94.8519C361.234 95.1102 361.796 95.7767 361.796 96.8513C361.796 97.5643 361.528 98.112 360.992 98.4943C360.455 98.8766 359.655 99.0678 358.592 99.0678H354.82V90.9149H358.482C359.429 90.9149 360.171 91.0957 360.707 91.4574C361.244 91.8191 361.512 92.3357 361.512 93.0074C361.512 93.4517 361.386 93.834 361.134 94.1544C360.892 94.4644 360.55 94.6969 360.108 94.8519ZM355.909 94.5419H358.403C359.045 94.5419 359.534 94.423 359.871 94.1854C360.218 93.9477 360.392 93.6015 360.392 93.1469C360.392 92.6922 360.218 92.3512 359.871 92.1239C359.534 91.8966 359.045 91.7829 358.403 91.7829H355.909V94.5419ZM358.545 98.1998C359.261 98.1998 359.797 98.0861 360.155 97.8588C360.513 97.6315 360.692 97.275 360.692 96.7893C360.692 96.3037 360.529 95.9472 360.202 95.7198C359.876 95.4822 359.361 95.3633 358.656 95.3633H355.909V98.1998H358.545Z" fill="#2D383F"/>
<path d="M374.425 91.8914H369.674V99.0678H368.553V90.9149H374.425V91.8914Z" fill="#2D383F"/>
<path d="M379.084 99.1453C378.284 99.1453 377.563 98.9696 376.921 98.6183C376.28 98.2566 375.775 97.7606 375.406 97.1303C375.038 96.5 374.854 95.787 374.854 94.9913C374.854 94.1957 375.038 93.4827 375.406 92.8524C375.775 92.2221 376.28 91.7312 376.921 91.3799C377.563 91.0286 378.284 90.8529 379.084 90.8529C379.883 90.8529 380.604 91.0286 381.246 91.3799C381.888 91.7312 382.388 92.2221 382.745 92.8524C383.114 93.4827 383.298 94.1957 383.298 94.9913C383.298 95.787 383.114 96.5 382.745 97.1303C382.388 97.7606 381.888 98.2566 381.246 98.6183C380.604 98.9696 379.883 99.1453 379.084 99.1453ZM379.084 98.1688C379.673 98.1688 380.199 98.0396 380.662 97.7813C381.136 97.5126 381.504 97.1355 381.767 96.6498C382.03 96.1642 382.161 95.6113 382.161 94.9913C382.161 94.3714 382.03 93.8185 381.767 93.3329C381.504 92.8472 381.136 92.4752 380.662 92.2169C380.199 91.9482 379.673 91.8139 379.084 91.8139C378.495 91.8139 377.963 91.9482 377.49 92.2169C377.027 92.4752 376.658 92.8472 376.385 93.3329C376.122 93.8185 375.99 94.3714 375.99 94.9913C375.99 95.6113 376.122 96.1642 376.385 96.6498C376.658 97.1355 377.027 97.5126 377.49 97.7813C377.963 98.0396 378.495 98.1688 379.084 98.1688Z" fill="#2D383F"/>
<path d="M389.97 90.8529C390.749 90.8529 391.454 91.0286 392.085 91.3799C392.716 91.7209 393.211 92.2066 393.569 92.8369C393.926 93.4672 394.105 94.1854 394.105 94.9913C394.105 95.8077 393.926 96.531 393.569 97.1613C393.211 97.7916 392.716 98.2825 392.085 98.6338C391.464 98.9748 390.759 99.1453 389.97 99.1453C389.297 99.1453 388.686 99.0109 388.139 98.7423C387.603 98.4633 387.161 98.0603 386.813 97.5333V102.075H385.693V90.9149H386.766V92.5269C387.103 91.9896 387.545 91.5762 388.092 91.2869C388.649 90.9976 389.276 90.8529 389.97 90.8529ZM389.891 98.1688C390.47 98.1688 390.996 98.0396 391.469 97.7813C391.943 97.5126 392.311 97.1355 392.574 96.6498C392.848 96.1642 392.985 95.6113 392.985 94.9913C392.985 94.3714 392.848 93.8237 392.574 93.3484C392.311 92.8627 391.943 92.4855 391.469 92.2169C390.996 91.9482 390.47 91.8139 389.891 91.8139C389.302 91.8139 388.77 91.9482 388.297 92.2169C387.834 92.4855 387.466 92.8627 387.192 93.3484C386.929 93.8237 386.798 94.3714 386.798 94.9913C386.798 95.6113 386.929 96.1642 387.192 96.6498C387.466 97.1355 387.834 97.5126 388.297 97.7813C388.77 98.0396 389.302 98.1688 389.891 98.1688Z" fill="#2D383F"/>
<path d="M400.001 93.7979C401.042 93.8082 401.837 94.0355 402.384 94.4799C402.931 94.9242 403.205 95.5648 403.205 96.4018C403.205 97.2698 402.91 97.9363 402.321 98.4013C401.732 98.8663 400.89 99.0936 399.796 99.0833L396.513 99.0678V90.9149H397.633V93.7669L400.001 93.7979ZM404.594 90.9149H405.714V99.0678H404.594V90.9149ZM399.733 98.2463C400.501 98.2566 401.079 98.1068 401.469 97.7968C401.868 97.4765 402.068 97.0115 402.068 96.4018C402.068 95.8025 401.874 95.3582 401.484 95.0688C401.095 94.7795 400.511 94.6297 399.733 94.6193L397.633 94.5884V98.2153L399.733 98.2463Z" fill="#2D383F"/>
</svg>
